<?xml version="1.0" encoding="UTF-8"?>
<svg id="Layer_1" xmlns="http://www.w3.org/2000/svg" version="1.1" viewBox="0 0 867 149">
  <!-- Generator: Adobe Illustrator 30.2.1, SVG Export Plug-In . SVG Version: 2.1.1 Build 1)  -->
  <defs>
    <style>
      .st0 {
        fill: #fff;
      }
    </style>
  </defs>
  <path class="st0" d="M495.15,9.1h8.2l13.84.51,17.43,1.54,18.97,2.56,23.07,4.1,24.1,5.13,30.76,7.69,25.12,6.67,30.25,7.18,20.51,4.61,28.71,4.61,30.76,4.1,31.27,5.13,20,3.59,20,4.1,17.43,3.59.51,1.03-8.2-1.03-18.97-2.56-52.29-4.61-39.99-3.08-25.63-1.03h-29.74l-27.69,1.03-38.45,2.56-55.88,4.1-26.15,2.05-16.41,1.03-48.71,1.03h-190.72l-42.04,1.03-31.79,1.54-32.3,2.56-25.63,3.08-20.51,3.59-18.97,4.1-21.02,5.64-32.3,9.74-15.38,5.13-12.3,4.61-16.92,6.15-1.54-.51,11.28-5.64,11.79-6.67,17.94-8.72,13.33-5.13,14.87-5.13,16.41-5.13,17.94-4.61,21.02-4.61,17.94-3.08,25.12-3.08,25.63-2.05,28.2-1.54,33.33-1.54,24.1-1.54,11.79-1.54,12.3-2.56,14.87-4.61,28.2-10.77,17.94-6.67,21.53-7.69,17.94-5.64,18.97-5.13,13.33-3.08,16.92-3.08,16.92-2.05,6.15-.51,12.82-.51ZM485.41,19.86l-14.36,1.03-12.3,1.54-17.94,3.08-16.92,4.1-21.02,6.15-24.1,8.2-28.71,10.77-26.15,9.74-9.74,3.08v.51l43.58,1.03,30.76.51,38.96,1.54,36.91,1.54,22.56.51h17.43l16.92-1.03,38.96-5.13,21.53-2.56,18.97-2.56.51-1.54h-9.23l-34.35,2.56-27.69,2.05h-3.59l-.51-1.03h10.25l27.69-3.08,27.69-2.56,46.14-4.1,43.58-3.08v-1.03l-15.89-2.56-24.61-4.61-31.27-7.69-28.2-6.15-16.41-3.08-23.07-3.59-19.48-2.05-9.74-.51h-27.17Z"/>
  <path class="st0" d="M312.63,93.18h8.2l8.2.51,2.56,2.56,6.15,9.74,6.67,10.77,2.05,2.05,2.05-1.03,8.2-6.15,10.77-8.2,7.18-5.64,5.64-4.1,5.64-.51h16.41l-1.03,5.13-7.69,23.07-4.61,12.82-1.54,3.59-1.03.51h-16.92l-.51-1.03,4.1-11.28,3.59-10.77,1.54-3.08-.51-1.03-5.13,4.1-6.67,5.13-8.72,7.18-8.72,6.67-4.61,3.59-3.08.51-2.56-2.05-6.67-9.23-7.69-12.3-3.08-4.61-1.03,1.03-2.56,8.2-5.64,16.41-1.54,2.56h-16.92l1.03-4.61,8.72-25.63,5.13-14.36,4.61-.51Z"/>
  <path class="st0" d="M250.59,93.18h12.82l34.35.51-.51,3.59-3.08,6.15-1.03.51-59.47.51-1.54,1.54-3.08,8.2-3.08,10.77-.51,3.08,43.07-.51,1.03-1.54.51-4.61h-19.48l-.51-.51.51-4.1,2.05-5.13,1.03-.51,37.94.51-1.03,4.61-6.15,18.46-1.54,3.08-1.03.51h-67.16l-3.59-1.03-3.59-3.59-1.54-4.1,1.03-6.15,4.1-12.82,3.59-9.23,3.59-4.61,3.59-2.56,2.05-.51,26.66-.51Z"/>
  <path class="st0" d="M592.05,93.18h9.23l.51.51-.51,5.13-3.08,8.72-1.54,3.59,7.69-3.08,24.61-9.74,11.79-4.61,6.15-.51h20.51l.51,1.54-37.43,15.38-5.13,2.05-.51,1.03,2.05,1.03,5.64,4.1,8.72,6.67,7.69,5.64,8.72,6.15v1.03l-9.74.51h-15.38l-4.61-3.08-14.36-11.28-4.61-3.59-3.59.51-10.77,4.61-4.1,2.05-2.56,9.23-2.56,1.54h-15.89l.51-4.61,7.69-22.56,6.15-17.43,8.2-.51Z"/>
  <path class="st0" d="M534.11,93.18h42.04l-.51,2.56-2.05,6.67-1.54,1.54-60.5.51-6.15,18.97-.51,3.59,1.03.51,58.96.51-.51,4.1-2.05,5.64-1.54.51h-67.16l-3.59-1.03-4.1-4.61-.51-1.54v-4.1l5.64-17.94,3.59-8.2,3.59-4.61,4.1-2.56,31.79-.51Z"/>
  <path class="st0" d="M432.09,93.18h22.56l35.89.51-1.54,4.61-2.56,5.13-1.03.51-31.27.51-5.64,15.89-5.13,15.38-1.03,2.05-1.03.51h-13.84l-3.59-.51,1.54-5.64,6.15-18.46,3.08-8.72.51-1.03h-20l-8.72-.51,1.54-5.13,1.54-4.61,22.56-.51Z"/>
</svg>